<svg xmlns="http://www.w3.org/2000/svg" width="752" height="32" viewBox="0 0 752 32"><svg width="32" height="32" viewBox="0 0 32 32"><path fill="" d="M32 16v.02c0 4.412-1.791 8.406-4.686 11.294A15.9 15.9 0 0 1 16.02 32h-.021H16h-.02a15.9 15.9 0 0 1-11.294-4.686A15.9 15.9 0 0 1 0 16.02v-.021V16v-.02c0-4.412 1.791-8.406 4.686-11.294A15.9 15.9 0 0 1 15.98 0h.021H16h.02c4.412 0 8.406 1.791 11.294 4.686A15.9 15.9 0 0 1 32 15.98z"/><path fill="" d="M22.397 22.4h.003v-4.696c0-2.296-.494-4.066-3.179-4.066-1.29 0-2.157.709-2.51 1.38h-.038v-1.166h-2.545v8.547h2.651v-4.232c0-1.114.211-2.192 1.59-2.192 1.36 0 1.38 1.272 1.38 2.264v4.16zM9.811 13.854h2.654V22.4H9.811zM11.137 9.6c-.848 0-1.536.688-1.536 1.537s.688 1.552 1.536 1.552 1.538-.703 1.538-1.552-.69-1.537-1.538-1.537"/></svg><svg width="32" height="32" x="48" viewBox="0 0 32 32"><path fill="" d="M32 16v.02c0 4.412-1.791 8.406-4.686 11.294A15.9 15.9 0 0 1 16.02 32h-.021H16h-.02a15.9 15.9 0 0 1-11.294-4.686A15.9 15.9 0 0 1 0 16.02v-.021V16v-.02c0-4.412 1.791-8.406 4.686-11.294A15.9 15.9 0 0 1 15.98 0h.021H16h.02c4.412 0 8.406 1.791 11.294 4.686A15.9 15.9 0 0 1 32 15.98z"/><path fill="" d="M18.132 11.726H19.3V9.691a15 15 0 0 0-1.656-.09h-.049.003c-1.685 0-2.838 1.06-2.838 3.008v1.792h-1.859v2.275h1.859v5.725h2.279v-5.724h1.784l.283-2.276h-2.068v-1.568c.001-.658.178-1.107 1.094-1.107"/></svg><svg width="32" height="32" x="96" viewBox="0 0 32 32"><path fill="" d="M32 16v.02c0 4.412-1.791 8.406-4.686 11.294A15.9 15.9 0 0 1 16.02 32h-.021H16h-.02a15.9 15.9 0 0 1-11.294-4.686A15.9 15.9 0 0 1 0 16.02v-.021V16v-.02c0-4.412 1.791-8.406 4.686-11.294A15.9 15.9 0 0 1 15.98 0h.021H16h.02c4.412 0 8.406 1.791 11.294 4.686A15.9 15.9 0 0 1 32 15.98z"/><path fill="" d="M22.387 13.363c-.03-.68-.14-1.148-.298-1.553a3.1 3.1 0 0 0-.739-1.135l-.001-.001a3.1 3.1 0 0 0-1.111-.73l-.021-.007c-.408-.158-.872-.268-1.552-.298-.686-.032-.904-.04-2.641-.04s-1.956.008-2.638.038c-.68.03-1.147.14-1.552.298a3.1 3.1 0 0 0-1.135.739l-.001.001a3.1 3.1 0 0 0-.73 1.111l-.007.021c-.158.408-.267.872-.298 1.552-.032.686-.04.904-.04 2.642s.008 1.955.038 2.638c.03.68.14 1.148.298 1.553.162.43.415.815.74 1.136.32.324.708.577 1.133.737.408.158.872.268 1.553.298.682.03.9.038 2.638.038s1.955-.008 2.638-.038c.68-.03 1.148-.14 1.553-.298a3.3 3.3 0 0 0 1.865-1.85l.008-.022c.158-.408.268-.874.298-1.554.03-.682.038-.9.038-2.638s-.002-1.956-.032-2.638zm-1.151 5.227c-.028.625-.133.962-.221 1.187-.22.56-.655.996-1.201 1.211l-.014.005c-.225.087-.565.192-1.187.219-.675.03-.878.038-2.586.038s-1.913-.008-2.586-.038c-.625-.027-.962-.132-1.188-.22a2 2 0 0 1-.735-.477 2 2 0 0 1-.473-.721l-.005-.014c-.088-.224-.192-.565-.22-1.187-.03-.675-.038-.878-.038-2.586s.008-1.913.038-2.586c.028-.625.133-.962.22-1.188.102-.278.266-.53.48-.735.208-.212.458-.375.736-.478.224-.087.565-.192 1.187-.22.675-.03.878-.038 2.586-.038 1.71 0 1.912.008 2.586.038.625.028.962.133 1.188.22.277.102.53.266.734.478.213.208.376.458.478.736.088.224.193.565.221 1.187.03.675.037.878.037 2.586s-.007 1.908-.037 2.583"/><path fill="" d="M16.024 12.713a3.29 3.29 0 0 0-.003 6.576h.004a3.29 3.29 0 0 0 .004-6.576h-.004zm0 5.421a2.134 2.134 0 0 1 0-4.268 2.134 2.134 0 0 1 0 4.268m4.186-5.551a.768.768 0 0 1-1.536 0 .768.768 0 0 1 1.536 0"/></svg><svg width="32" height="32" x="144" viewBox="0 0 32 32"><path fill="" d="M32 16v.02c0 4.412-1.791 8.406-4.686 11.294A15.9 15.9 0 0 1 16.02 32h-.021H16h-.02a15.9 15.9 0 0 1-11.294-4.686A15.9 15.9 0 0 1 0 16.02v-.021V16v-.02c0-4.412 1.791-8.406 4.686-11.294A15.9 15.9 0 0 1 15.98 0h.021H16h.02c4.412 0 8.406 1.791 11.294 4.686A15.9 15.9 0 0 1 32 15.98z"/><path fill="" d="M22.4 12.031c-.44.198-.95.344-1.485.412l-.027.003a2.62 2.62 0 0 0 1.149-1.432l.005-.018a5.2 5.2 0 0 1-1.63.629l-.034.006a2.624 2.624 0 0 0-4.539 1.794v.001q-.002.312.061.598a7.42 7.42 0 0 1-5.398-2.731l-.011-.014a2.626 2.626 0 0 0 .797 3.501l.009.006a2.6 2.6 0 0 1-1.199-.33l.013.007v.029a2.64 2.64 0 0 0 2.085 2.575l.017.003a2.6 2.6 0 0 1-.67.086h-.019.001-.034q-.246 0-.478-.048l.015.003a2.65 2.65 0 0 0 2.449 1.828h.003a5.25 5.25 0 0 1-3.251 1.119h-.003q-.32.002-.628-.036a7.3 7.3 0 0 0 4.001 1.178h.026-.001c4.829 0 7.469-4 7.469-7.467q0-.173-.01-.339a5.2 5.2 0 0 0 1.303-1.344l.012-.019z"/></svg></svg>